<svg width="18" height="18" viewBox="0 0 18 18" fill="none" xmlns="http://www.w3.org/2000/svg">
<path d="M12 4.5L5.6895 10.9395C5.31049 11.3185 5.16246 11.8709 5.30119 12.3887C5.43992 12.9064 5.84432 13.3108 6.36207 13.4496C6.87981 13.5883 7.43224 13.4403 7.81125 13.0612L14.1217 6.62175C14.8796 5.86386 15.1756 4.7592 14.8982 3.7239C14.6208 2.6886 13.8122 1.87993 12.7769 1.60252C11.7415 1.32511 10.6369 1.62111 9.879 2.379L3.59475 8.79225C2.44249 9.92589 1.98678 11.5904 2.4009 13.1529C2.81502 14.7154 4.03535 15.9357 5.59783 16.3498C7.16031 16.764 8.82486 16.3083 9.9585 15.156L16.2428 8.74275" stroke="#9CA3AF" stroke-width="1.5" stroke-linecap="round" stroke-linejoin="round"/>
</svg>
