<svg width="18" height="18" viewBox="0 0 18 18" fill="none" xmlns="http://www.w3.org/2000/svg">
<path d="M8.26275 2.1105C8.32905 1.75553 8.63889 1.4982 9 1.4982C9.36111 1.4982 9.67095 1.75553 9.73725 2.1105L10.5255 6.279C10.6401 6.88551 11.1145 7.35993 11.721 7.4745L15.8895 8.26275C16.2445 8.32905 16.5018 8.63889 16.5018 9C16.5018 9.36111 16.2445 9.67095 15.8895 9.73725L11.721 10.5255C11.1145 10.6401 10.6401 11.1145 10.5255 11.721L9.73725 15.8895C9.67095 16.2445 9.36111 16.5018 9 16.5018C8.63889 16.5018 8.32905 16.2445 8.26275 15.8895L7.4745 11.721C7.35993 11.1145 6.88551 10.6401 6.279 10.5255L2.1105 9.73725C1.75553 9.67095 1.4982 9.36111 1.4982 9C1.4982 8.63889 1.75553 8.32905 2.1105 8.26275L6.279 7.4745C6.88551 7.35993 7.35993 6.88551 7.4745 6.279" stroke="#9CA3AF" stroke-width="1.5" stroke-linecap="round" stroke-linejoin="round"/>
</svg>
