<svg width="36" height="36" viewBox="0 0 36 36" fill="none" xmlns="http://www.w3.org/2000/svg">
<path d="M21 13.5L14.6895 19.9395C14.3105 20.3185 14.1625 20.8709 14.3012 21.3887C14.4399 21.9064 14.8443 22.3108 15.3621 22.4496C15.8798 22.5883 16.4322 22.4403 16.8113 22.0612L23.1217 15.6217C23.8796 14.8639 24.1756 13.7592 23.8982 12.7239C23.6208 11.6886 22.8122 10.8799 21.7769 10.6025C20.7415 10.3251 19.6369 10.6211 18.879 11.379L12.5947 17.7922C11.4425 18.9259 10.9868 20.5904 11.4009 22.1529C11.815 23.7154 13.0354 24.9357 14.5978 25.3498C16.1603 25.764 17.8249 25.3083 18.9585 24.156L25.2428 17.7428" stroke="#9CA3AF" stroke-width="1.5" stroke-linecap="round" stroke-linejoin="round"/>
</svg>
