<svg width="18" height="18" viewBox="0 0 18 18" fill="none" xmlns="http://www.w3.org/2000/svg">
<path d="M9 5.25V15.75M2.25 13.5C1.83606 13.5 1.5 13.1639 1.5 12.75V3C1.5 2.58606 1.83606 2.25 2.25 2.25H6C7.65575 2.25 9 3.59425 9 5.25C9 3.59425 10.3443 2.25 12 2.25H15.75C16.1639 2.25 16.5 2.58606 16.5 3V12.75C16.5 13.1639 16.1639 13.5 15.75 13.5H11.25C10.0082 13.5 9 14.5082 9 15.75C9 14.5082 7.99181 13.5 6.75 13.5" stroke="#CFE8FF" stroke-width="1.5" stroke-linecap="round" stroke-linejoin="round"/>
</svg>
